<svg width="329.999" height="329.999" xmlns="http://www.w3.org/2000/svg">

 <g>
  <title>background</title>
  <rect fill="none" id="canvas_background" height="331.999" width="331.999" y="-1" x="-1"/>
 </g>
 <g>
  <title>Layer 1</title>
  <g stroke="null" id="XMLID_16_">
   <path stroke="null" fill="#FFFFFF" d="m167.143052,24.47c-19.059452,0 -37.570293,3.668 -55.055382,10.881l-29.812228,-29.619c-0.824426,-0.82 -2.107874,-0.967 -3.102421,-0.359c-29.026053,17.828 -53.852464,42.492 -71.796575,71.326c-0.614042,0.986 -0.465061,2.262 0.360372,3.082l28.578105,28.383c-8.547259,18.637 -12.892863,38.5 -12.892863,59.074c0,78.719 64.473372,142.762 143.72099,142.762c79.242585,0 143.710924,-64.043 143.710924,-142.762c0,-78.723 -64.468339,-142.768 -143.710924,-142.768zm56.937772,129.194l10.00888,42.082l9.606229,44.395l-44.630766,-9.533l-42.333646,-9.893l-114.359731,-113.604c14.34643,-29.338 38.593024,-52.619 68.565306,-65.832l113.143727,112.385z" id="XMLID_17_"/>
   <path stroke="null" fill="#FFFFFF" d="m228.645872,192.396l-7.571839,-33.023c-26.062547,11.889 -46.711461,32.402 -58.669168,58.295l33.241802,7.52c7.057453,-14.023 18.893359,-25.778 32.999205,-32.792z" id="XMLID_20_"/>
  </g>
  <g id="svg_1"/>
  <g id="svg_2"/>
  <g id="svg_3"/>
  <g id="svg_4"/>
  <g id="svg_5"/>
  <g id="svg_6"/>
  <g id="svg_7"/>
  <g id="svg_8"/>
  <g id="svg_9"/>
  <g id="svg_10"/>
  <g id="svg_11"/>
  <g id="svg_12"/>
  <g id="svg_13"/>
  <g id="svg_14"/>
  <g id="svg_15"/>
 </g>
</svg>